HIERARCHY
ROOT Hips
{
	OFFSET 0.00000 0.00000 0.00000
	CHANNELS 6 Xposition Yposition Zposition Zrotation Yrotation Xrotation 
	JOINT LHipJoint
	{
		OFFSET 0 0 0
		CHANNELS 3 Zrotation Yrotation Xrotation
		JOINT LeftHip
		{
			OFFSET 1.57338 -1.94743 0.52196
			CHANNELS 3 Zrotation Yrotation Xrotation
			JOINT LeftKnee
			{
				OFFSET 2.60333 -7.15259 0.00000
				CHANNELS 3 Zrotation Yrotation Xrotation
				JOINT LeftAnkle
				{
					OFFSET 2.77855 -7.63400 0.00000
					CHANNELS 3 Zrotation Yrotation Xrotation
					JOINT LeftToe
					{
						OFFSET 0.19847 -0.54529 2.28466
						CHANNELS 3 Zrotation Yrotation Xrotation
						End Site
						{
							OFFSET 0.00000 -0.00000 1.17993
						}
					}
				}
			}
		}
	}
	JOINT RHipJoint
	{
		OFFSET 0 0 0
		CHANNELS 3 Zrotation Yrotation Xrotation
		JOINT RightHip
		{
			OFFSET -1.61527 -1.94743 0.52196
			CHANNELS 3 Zrotation Yrotation Xrotation
			JOINT RightKnee
			{
				OFFSET -2.53829 -6.97390 0.00000
				CHANNELS 3 Zrotation Yrotation Xrotation
				JOINT RightAnkle
				{
					OFFSET -2.80762 -7.71387 0.00000
					CHANNELS 3 Zrotation Yrotation Xrotation
					JOINT RightToe
					{
						OFFSET -0.30536 -0.83898 2.28801
						CHANNELS 3 Zrotation Yrotation Xrotation
						End Site
						{
							OFFSET -0.00000 -0.00000 1.21323
						}
					}
				}
			}
		}
	}
	JOINT lowerback
	{
		OFFSET 0 0 0
		CHANNELS 3 Zrotation Yrotation Xrotation
		JOINT Chest
		{
			OFFSET -0.04381 1.99497 -0.19778
			CHANNELS 3 Zrotation Yrotation Xrotation
			JOINT Chest2
			{
				OFFSET -0.01959 2.01295 -0.04372
				CHANNELS 3 Zrotation Yrotation Xrotation
				JOINT lowerneck
				{
					OFFSET 0 0 0
					CHANNELS 3 Zrotation Yrotation Xrotation
					JOINT Neck
					{
						OFFSET -0.05459 1.76913 0.09708
						CHANNELS 3 Zrotation Yrotation Xrotation
						JOINT Head
						{
							OFFSET 0.09461 1.77368 -0.11172
							CHANNELS 3 Zrotation Yrotation Xrotation
							End Site
							{
								OFFSET 0.03812 1.78157 -0.04834
							}
						}
					}
				}
				JOINT LeftCollar
				{
					OFFSET 0 0 0
					CHANNELS 3 Zrotation Yrotation Xrotation
					JOINT LeftShoulder
					{
						OFFSET 3.50922 1.24034 -0.28866
CHANNELS 3 Zrotation Xrotation Yrotation
						JOINT LeftElbow
						{
OFFSET 0 -5.401880 0.000000
CHANNELS 3 Zrotation Xrotation Yrotation
							JOINT LeftWrist
							{
OFFSET 0 -3.685590 0.000000
CHANNELS 3 Zrotation Xrotation Yrotation
								JOINT lhand
								{
									OFFSET 0 0 0
CHANNELS 3 Zrotation Xrotation Yrotation
									JOINT LFingers
									{
OFFSET 0 -0.617530 0.000000
CHANNELS 3 Zrotation Xrotation Yrotation
										End Site
										{
OFFSET 0 -0.497870 0.000000
										}
									}
								}
								JOINT LThumb
								{
OFFSET 0 0.000000 0.000000
CHANNELS 3 Zrotation Xrotation Yrotation
									End Site
									{
OFFSET 0 -0.505470 0.505470
									}
								}
							}
						}
					}
				}
				JOINT RightCollar
				{
					OFFSET 0 0 0
					CHANNELS 3 Zrotation Yrotation Xrotation
					JOINT RightShoulder
					{
						OFFSET -2.95373 1.39649 -0.27346
CHANNELS 3 Zrotation Xrotation Yrotation
						JOINT RightElbow
						{
OFFSET 0 -6.106700 -0.000000
CHANNELS 3 Zrotation Xrotation Yrotation
							JOINT RightWrist
							{
OFFSET 0 -3.630520 0.000000
CHANNELS 3 Zrotation Xrotation Yrotation
								JOINT rhand
								{
									OFFSET 0 0 0
CHANNELS 3 Zrotation Xrotation Yrotation
									JOINT RFingers
									{
OFFSET 0 -0.583850 0.000000
CHANNELS 3 Zrotation Xrotation Yrotation
										End Site
										{
OFFSET 0 -0.470710 0.000000
										}
									}
								}
								JOINT RThumb
								{
OFFSET 0 0.000000 0.000000
CHANNELS 3 Zrotation Xrotation Yrotation
									End Site
									{
OFFSET 0 -0.477900 0.477900
									}
								}
							}
						}
					}
				}
			}
		}
	}
}
MOTION
Frames: 12
Frame Time: 0.008333333333333333
2.899115 19.222071 5.584354 -7.904005 9.813812 0.460453 0.000000 0.000000 0.000000 -12.130180 -16.304546 2.413253 0.521578 4.628391 12.851673 0.045241 9.345949 -14.079432 0.208273 -2.936950 -8.103305 0.000000 0.000000 0.000000 13.463729 20.394322 -0.548438 -0.699776 -5.347160 14.901449 5.447952 -37.373923 -12.658908 -0.521316 -4.627420 12.848909 -3.595935 3.587611 4.486085 -6.817358 4.485060 0.560259 -5.316443 2.256508 -1.659583 -11.411245 -6.216477 -9.655746 10.786944 -7.553770 2.681351 4.678049 -3.498113 3.220896 0.000000 0.000000 0.000000 17.502737 -0.803829 -3.031056 14.980763 -24.119034 3.218268 31.009542 12.300587 -25.351531 0.000000 0.000000 0.000000 -7.125000 0.000000 0.000000 1.562947 58.906925 -0.531266 0.000000 0.000000 0.000000 -83.542537 -54.295502 41.904967 -81.944484 -59.753297 -53.029462 -60.899611 22.327607 -13.513081 0.000000 0.000000 0.000000 7.125000 0.000000 0.000000 -21.055941 5.080764 -20.580590
3.069201 19.215356 5.657209 -8.704113 9.008881 -0.831287 0.000000 0.000000 0.000000 -12.327851 -15.496609 3.684555 0.595254 4.939103 13.735010 0.130713 9.373201 -15.420911 0.078494 -1.807235 -4.973215 0.000000 0.000000 0.000000 14.582427 19.452869 0.564754 -0.676085 -5.257619 14.644758 5.972021 -38.718328 -14.255389 -0.693442 -5.323019 14.832247 -3.937673 3.131105 3.641364 -7.118618 3.874425 -0.064424 -5.380794 1.949864 -1.875047 -10.658282 -4.764276 -9.642218 8.527665 -5.743765 6.721399 3.971878 -2.692401 4.136769 0.000000 0.000000 0.000000 18.399893 0.273307 -0.081804 12.951858 -21.216350 2.435990 30.472785 13.612697 -25.501057 0.000000 0.000000 0.000000 -7.125000 0.000000 0.000000 0.894208 58.939817 -0.305133 0.000000 0.000000 0.000000 -94.560242 -49.245266 23.218983 -69.860964 -58.404257 -42.653202 -62.119644 20.868993 -12.681512 0.000000 0.000000 0.000000 7.125000 0.000000 0.000000 -21.963375 5.738238 -21.327301
3.258874 19.184137 5.711980 -9.005904 8.324004 -2.193162 0.000000 0.000000 0.000000 -12.699153 -13.412813 4.209760 0.694549 5.327501 14.845128 0.233288 7.730298 -15.016986 0.092012 -1.956114 -5.384403 0.000000 0.000000 0.000000 15.318886 17.603429 1.113734 -0.729133 -5.455747 15.213180 6.438184 -39.812314 -17.028227 -1.002509 -6.371510 17.866152 -3.798165 3.185171 3.219482 -7.912544 3.938919 -0.534279 -6.301639 1.977847 -2.056321 -10.039948 -4.348323 -9.123761 7.680376 -5.401123 10.481565 3.638794 -2.576772 5.127315 0.000000 0.000000 0.000000 20.359860 0.012943 1.072930 11.566082 -19.150602 1.957728 26.662498 14.185327 -23.116915 0.000000 0.000000 0.000000 -7.125000 0.000000 0.000000 -2.642616 55.494046 0.678786 0.000000 0.000000 0.000000 -102.683362 -44.382044 3.757818 -48.486818 -52.357253 -24.973235 -61.363625 23.452778 -10.975221 0.000000 0.000000 0.000000 7.125000 0.000000 0.000000 -22.090647 9.130342 -19.885499
3.382497 19.146600 5.725725 -9.208071 8.420111 -2.976584 0.000000 0.000000 0.000000 -12.870480 -12.787394 3.952652 0.851067 5.883444 16.446732 0.351393 6.303021 -15.266894 0.065384 -1.649478 -4.537882 0.000000 0.000000 0.000000 15.415428 15.806284 0.341031 -0.913944 -6.091437 17.049989 5.808734 -38.254692 -14.870845 -0.719189 -5.415977 15.099680 -4.802417 3.155363 2.901132 -8.517105 3.856546 -0.770538 -6.372082 1.944491 -2.155905 -10.516020 -4.668864 -9.005492 7.821952 -5.909522 12.903733 3.724922 -2.849624 5.926615 0.000000 0.000000 0.000000 21.858311 -0.675730 -0.091349 11.653716 -19.283257 1.986410 29.423770 16.740617 -24.709223 0.000000 0.000000 0.000000 -7.125000 0.000000 0.000000 -0.076258 57.826641 0.023922 0.000000 0.000000 0.000000 -102.685423 -44.247430 -18.850743 -34.476569 -44.433819 -14.446009 -56.306173 31.376942 -2.284719 0.000000 0.000000 0.000000 7.125000 0.000000 0.000000 -22.037181 25.692088 -11.095843
3.441571 19.062725 5.712899 -9.298745 9.066196 -3.797625 0.000000 0.000000 0.000000 -13.355997 -13.688566 3.408512 1.189747 6.921395 19.482917 0.521507 5.687720 -16.903039 0.060280 -1.584035 -4.357396 0.000000 0.000000 0.000000 15.562789 11.821892 -1.696952 -1.513787 -7.769439 22.016262 2.279081 -25.587270 -11.665255 -0.224741 3.003857 -8.292656 -6.134102 3.287162 2.950899 -9.144696 3.973933 -0.684024 -6.308689 2.016396 -2.133342 -10.815940 -4.720753 -8.581257 7.501327 -5.956681 13.562670 3.675625 -2.921899 6.066138 0.000000 0.000000 0.000000 23.443953 -2.630099 -1.920311 11.625227 -19.240147 1.977093 28.370157 15.316755 -24.668028 0.000000 0.000000 0.000000 -7.125000 0.000000 0.000000 -1.250521 57.538485 0.383397 0.000000 0.000000 0.000000 -97.177204 -46.811915 -39.865374 -34.539478 -44.479818 -14.489932 -54.901872 24.118280 0.604764 0.000000 0.000000 0.000000 7.125000 0.000000 0.000000 -22.101490 30.521287 -8.383027
3.460685 18.966268 5.669715 -9.421333 8.498234 -5.097210 0.000000 0.000000 0.000000 -13.676509 -13.647789 3.249758 1.583174 7.937733 22.525250 0.702042 5.258562 -18.602311 0.058885 -1.565185 -4.305452 0.000000 0.000000 0.000000 17.487358 10.740497 -2.711370 -2.540682 -9.911184 28.689845 0.394838 -13.361239 -12.940121 -0.880087 5.980662 -16.728386 -6.847927 3.645080 3.239261 -9.272518 4.419980 -0.327844 -6.074807 2.241998 -1.939822 -11.106879 -4.239210 -9.245936 6.682465 -5.085370 14.611436 3.531779 -2.567745 6.418998 0.000000 0.000000 0.000000 24.076969 -5.587531 0.327514 10.754811 -17.911478 1.699798 27.260508 17.772774 -23.113970 0.000000 0.000000 0.000000 -7.125000 0.000000 0.000000 -1.995825 55.616911 0.519828 0.000000 0.000000 0.000000 -90.983716 -45.264821 -34.402518 -45.028098 -50.780783 -22.260926 -55.225699 26.726007 2.714110 0.000000 0.000000 0.000000 7.125000 0.000000 0.000000 -23.178583 33.924473 -6.774337
3.501248 18.910822 5.640501 -8.510895 7.377129 -5.595156 0.000000 0.000000 0.000000 -14.640134 -12.117776 3.091471 1.700662 8.212642 23.361835 0.763886 4.466483 -18.722822 0.036679 -1.235376 -3.396714 0.000000 0.000000 0.000000 18.822350 9.483753 -3.883337 -3.313237 -11.185708 32.908729 0.765662 -15.819349 -10.329304 -0.820721 5.780414 -16.148719 -6.991774 4.004320 2.934544 -9.780218 4.915238 -0.425438 -6.548529 2.488966 -1.810553 -10.593708 -3.983960 -9.722158 6.350697 -4.740139 15.515290 3.371182 -2.398797 6.736656 0.000000 0.000000 0.000000 24.359336 -5.991698 -2.018855 11.399507 -18.898007 1.903337 32.058148 16.557532 -24.038668 0.000000 0.000000 0.000000 -7.125000 0.000000 0.000000 3.108302 57.710468 -0.968135 0.000000 0.000000 0.000000 -89.273083 -39.010560 -7.617821 -61.428354 -56.678216 -35.532292 -54.379784 28.723901 0.007241 0.000000 0.000000 0.000000 7.125000 0.000000 0.000000 -21.494858 29.575920 -8.646076
3.530506 18.882123 5.626866 -8.149612 6.766921 -5.322224 0.000000 0.000000 0.000000 -14.950137 -11.604342 2.369055 1.785103 8.403391 23.946305 0.800018 4.301132 -18.989090 0.054049 -1.500234 -4.126360 0.000000 0.000000 0.000000 20.466129 9.599208 -3.243491 -3.050125 -10.775752 31.527145 1.186033 -20.945298 -17.782007 -0.124812 2.277629 -6.273453 -6.611626 4.151043 2.447190 -9.951769 5.168516 -0.604114 -6.922987 2.612846 -1.657272 -9.926081 -4.479027 -9.628091 6.910557 -5.587828 14.079410 3.357117 -2.721602 6.331629 0.000000 0.000000 0.000000 23.893420 -5.418297 -2.995909 12.631011 -20.744191 2.320935 32.829347 14.935770 -22.913766 0.000000 0.000000 0.000000 -7.125000 0.000000 0.000000 4.214133 56.634500 -1.203304 0.000000 0.000000 0.000000 -89.124724 -33.594813 19.216439 -93.298404 -59.953260 -62.855924 -49.854259 31.305923 -5.150417 0.000000 0.000000 0.000000 7.125000 0.000000 0.000000 -16.751130 22.109653 -9.621987
3.537784 18.898735 5.569647 -8.193637 6.657601 -4.254795 0.000000 0.000000 0.000000 -14.799650 -12.427043 1.311733 1.771697 8.373394 23.854180 0.781432 4.872307 -19.162997 0.052249 -1.474696 -4.055977 0.000000 0.000000 0.000000 20.626747 10.723579 -3.017265 -2.731824 -10.247735 29.782733 1.268670 -21.828352 -18.954011 -0.214115 2.978752 -8.219675 -6.632334 4.115970 2.854649 -9.516180 5.032632 -0.896290 -6.488976 2.546866 -2.244958 -11.024947 -5.061112 -9.145209 8.673210 -6.394631 11.138108 4.030039 -3.044824 5.490549 0.000000 0.000000 0.000000 22.372098 -4.414141 -4.994189 13.829151 -22.489900 2.762397 33.351648 12.876197 -22.544397 0.000000 0.000000 0.000000 -7.125000 0.000000 0.000000 4.868923 56.339398 -1.356251 0.000000 0.000000 0.000000 -83.025677 -28.694834 36.674002 -124.450991 -54.996725 -89.333384 -58.490695 29.258040 -10.670017 0.000000 0.000000 0.000000 7.125000 0.000000 0.000000 -20.573491 11.013460 -17.464114
3.533567 18.931233 5.465312 -7.761405 5.767723 -2.891413 0.000000 0.000000 0.000000 -15.045884 -12.914483 0.158308 1.683129 8.172268 23.238608 0.714913 5.919199 -19.203246 0.036914 -1.238023 -3.403953 0.000000 0.000000 0.000000 19.044733 12.139999 -3.390683 -2.470862 -9.784647 28.282227 1.049326 -19.688231 -16.531210 -0.383708 3.977681 -11.013931 -6.754666 4.028238 2.881551 -9.128353 4.935584 -0.656174 -5.985667 2.497425 -2.059567 -11.260759 -5.487793 -9.252860 9.360261 -6.853657 8.199956 4.243903 -3.228220 4.683436 0.000000 0.000000 0.000000 22.608334 -2.317362 -10.351787 14.422134 -23.334802 2.993331 32.647461 15.294019 -23.809214 0.000000 0.000000 0.000000 -7.125000 0.000000 0.000000 3.836408 57.594992 -1.184129 0.000000 0.000000 0.000000 -78.960356 -25.749662 31.548536 -126.817155 -54.197274 -91.262640 -60.733274 24.930474 -11.163810 0.000000 0.000000 0.000000 7.125000 0.000000 0.000000 -21.687953 9.152008 -19.438993
3.472829 18.949791 5.350340 -7.161575 3.047225 -1.927907 0.000000 0.000000 0.000000 -15.276954 -12.188943 -0.667175 1.607730 7.996124 22.702239 0.656766 7.264162 -19.640615 0.018909 -0.887034 -2.437983 0.000000 0.000000 0.000000 17.472118 12.861961 -3.691034 -2.132619 -9.136908 26.224785 0.644389 -15.638204 -13.181502 -0.449838 4.302827 -11.930234 -6.566709 3.956997 3.308301 -9.156887 4.787770 -0.611944 -6.147282 2.418698 -2.243975 -10.508837 -6.320608 -9.665861 10.335745 -8.094518 7.181751 4.314060 -3.755814 4.585057 0.000000 0.000000 0.000000 25.052376 1.052197 -13.588545 15.116758 -24.308528 3.273837 32.173388 15.501129 -20.820762 0.000000 0.000000 0.000000 -7.125000 0.000000 0.000000 3.827404 54.132075 -0.859763 0.000000 0.000000 0.000000 -80.476329 -26.579973 10.191632 -101.366093 -59.491603 -69.825653 -53.475972 26.827755 -7.655033 0.000000 0.000000 0.000000 7.125000 0.000000 0.000000 -18.460956 17.607846 -12.687490
3.344135 18.964116 5.245217 -7.297589 0.619092 -0.567870 0.000000 0.000000 0.000000 -14.238729 -11.541968 -2.423376 1.616315 8.016468 22.764022 0.645732 7.912996 -20.066890 0.004083 -0.410017 -1.126677 0.000000 0.000000 0.000000 17.128698 11.649841 -4.807962 -1.702534 -8.216804 23.374580 0.538938 -14.198062 -11.668466 -0.383413 3.976239 -11.009881 -6.131092 3.694449 3.233810 -8.856277 4.468713 -0.558863 -6.038490 2.251985 -2.154925 -11.841103 -7.449026 -9.962414 12.946110 -9.615081 6.058647 5.205062 -4.406577 4.662690 0.000000 0.000000 0.000000 26.883431 1.909940 -10.279734 14.964066 -24.095969 3.211242 32.569785 15.632496 -20.640136 0.000000 0.000000 0.000000 -7.125000 0.000000 0.000000 4.283834 54.012198 -0.950453 0.000000 0.000000 0.000000 -84.766154 -31.042218 -10.113994 -63.986720 -57.270747 -37.679639 -51.653805 22.121477 -6.862663 0.000000 0.000000 0.000000 7.125000 0.000000 0.000000 -17.505729 19.238757 -11.296035
